<svg data-name="Layer 1" xmlns="http://www.w3.org/2000/svg" width="1036" height="569.971" viewBox="0 0 1036 569.971"><circle cx="549.411" cy="255.859" r="158.77" fill="#c5333b" opacity=".3"/><path d="M193.036 295.837c0 105.976-85.918 191.894-191.894 191.894V103.943c105.976 0 191.894 85.918 191.894 191.894zm649.928 0c0 105.976 85.918 191.894 191.894 191.894V103.943c-105.976 0-191.894 85.918-191.894 191.894zM187.237 80.882a13.707 13.707 0 1 1 13.706-13.706 13.722 13.722 0 0 1-13.706 13.706zm0-25.129a11.422 11.422 0 1 0 11.422 11.423 11.435 11.435 0 0 0-11.422-11.423zm609.752 380.693H774.44v-22.549h22.549zm-20.814-1.735h19.08v-19.08h-19.08zm-516.44-18.734l-15.38-16.49 16.49-15.38 15.38 16.49zm-12.928-16.404l13.014 13.953 13.952-13.014-13.014-13.953z" fill="#3f3d56"/><path d="M0 0v569.971h1036V0zm1033.716 567.687H2.284V2.284h1031.432z" fill="#3f3d56"/><path d="M774.898 569.4q-37.048-5.8-71.243-9.866l8.778-17.557c-3.047-1.016-16.25 9.14-16.25 9.14l11.172-50.783c-15.235 2.031-22.345 53.831-22.345 53.831l-17.267-17.267 8.5 19.55c-69.759-7.33-129.953-9.618-180.554-9.093l7.514-15.027c-3.047-1.016-16.251 9.141-16.251 9.141l11.172-50.784c-15.235 2.031-22.345 53.831-22.345 53.831l-17.266-17.267 9.002 20.706a1013.499 1013.499 0 0 0-103.623 8.345c7.498-23.357 33.68-45.81 33.68-45.81-20.132 6.264-30.605 16.467-36.026 25.926a407.859 407.859 0 0 1 21.806-141.205s-40.627 91.411-34.533 152.352l.773 10.825c-35.345 5.514-53.08 11.012-53.08 11.012z" fill="#3f3d56"/><path d="M432.62 554.168c-.315.108.324 0 0 0z" fill="#3f3d56"/><path d="M722.164 506.23v-4.794H431.661c-4.766 0-8.629 12.02-8.629 26.845s4.822 25.887 9.588 25.887h289.544v-4.794H432.62v-3.835h281.874v-1.917H432.62v-.96h278.998v-2.875H432.62v-1.918h276.12v-2.876H432.62v-1.918h274.204V530.2H432.62v-1.918h271.328v-2.876H432.62v-1.917h273.245v-2.877H432.62v-1.917h275.163v-2.876H432.62V513.9h281.874v-2.876H432.62v-4.794z" fill="#3f3d56"/><path d="M664.69 504.313c.314.108-.325 0 0 0z" fill="#3f3d56"/><path d="M375.145 456.375v-4.794h290.503c4.765 0 8.629 12.019 8.629 26.845s-4.822 25.887-9.588 25.887H375.145v-4.794h289.544v-3.835H382.815v-1.918h281.874v-.958H385.691v-2.877H664.69v-1.917H388.568v-2.877h276.121v-1.917H390.485v-2.876h274.204v-1.918H393.361v-2.876H664.69v-1.918H391.444v-2.876h273.245v-1.917H389.526v-2.877H664.69v-1.917H382.815v-2.876h281.874v-4.794z" fill="#3f3d56"/><path fill="#c5333b" d="M484.209 53.873L378.496 182.137l156.455 184.645 104.303-122.626L484.209 53.873z"/><path opacity=".1" d="M484.209 53.873L378.496 182.137l156.455 184.645 104.303-122.626L484.209 53.873z"/><path d="M382.725 183.547a53.131 53.131 0 0 1 8.619-11.508l97.094-98.433s33.828-5.638 40.875 11.276L405.277 186.366z" fill="#f2f2f2"/><path d="M377.792 181.433L521.56 401.315s14.095 9.867 28.19 4.229l147.293-99.37L540.59 69.377 399.64 179.318z" fill="#c5333b"/><path fill="#3f3d56" d="M432.796 168.52l90.216-64.828 1.333 1.855-90.216 64.827zm-3.101 25.523l1.905-1.26L550 371.79l-1.905 1.26zm132.78 183.11l95.825-70.504 1.354 1.84-95.825 70.504zm-24.231-269.067l1.874-1.304 122.627 176.187-1.875 1.305zm-147.538 66.485L502.24 72.209l.952 1.038L391.66 175.609zm4.257 1.421L511.531 73.085l.933 1.057L395.897 177.05zm2.852.01L518.822 75.136l.903 1.083-121.007 100.866z"/><path d="M998.306 295.837c-6.487-2.405-14.536-6.512-19.526-10.862l3.517 9.72h-62.804v2.284h62.804l-3.517 9.722c4.99-4.35 13.04-8.457 19.526-10.864zm-880.656-1.142H54.844l3.517-9.723c-4.99 4.35-13.039 8.458-19.526 10.865 6.487 2.405 14.536 6.512 19.526 10.862l-3.517-9.72h62.804z" fill="#fff"/></svg>